<?xml version="1.0" encoding="UTF-8" standalone="no"?>
<!-- Generator: Adobe Illustrator 19.0.0, SVG Export Plug-In . SVG Version: 6.00 Build 0)  -->

<svg
   xmlns:dc="http://purl.org/dc/elements/1.1/"
   xmlns:cc="http://creativecommons.org/ns#"
   xmlns:rdf="http://www.w3.org/1999/02/22-rdf-syntax-ns#"
   xmlns:svg="http://www.w3.org/2000/svg"
   xmlns="http://www.w3.org/2000/svg"
   xmlns:sodipodi="http://sodipodi.sourceforge.net/DTD/sodipodi-0.dtd"
   xmlns:inkscape="http://www.inkscape.org/namespaces/inkscape"
   version="1.1"
   id="Capa_1"
   x="0px"
   y="0px"
   viewBox="0 0 58 58"
   style="enable-background:new 0 0 58 58;"
   xml:space="preserve"
   sodipodi:docname="history.svg"
   inkscape:version="0.92.3 (2405546, 2018-03-11)"><metadata
   id="metadata3897"><rdf:RDF><cc:Work
       rdf:about=""><dc:format>image/svg+xml</dc:format><dc:type
         rdf:resource="http://purl.org/dc/dcmitype/StillImage" /></cc:Work></rdf:RDF></metadata><defs
   id="defs3895" /><sodipodi:namedview
   pagecolor="#ffffff"
   bordercolor="#666666"
   borderopacity="1"
   objecttolerance="10"
   gridtolerance="10"
   guidetolerance="10"
   inkscape:pageopacity="0"
   inkscape:pageshadow="2"
   inkscape:window-width="1920"
   inkscape:window-height="1013"
   id="namedview3893"
   showgrid="false"
   inkscape:zoom="14.137931"
   inkscape:cx="17.364634"
   inkscape:cy="29"
   inkscape:window-x="2391"
   inkscape:window-y="147"
   inkscape:window-maximized="1"
   inkscape:current-layer="Capa_1" />
<g
   id="g3860"
   style="fill:#134568;fill-opacity:1">
	<path
   d="M42.899,4.5c-0.465-2.279-2.484-4-4.899-4c-0.553,0-1,0.447-1,1s0.447,1,1,1c1.654,0,3,1.346,3,3s-1.346,3-3,3   c-0.553,0-1,0.447-1,1s0.447,1,1,1c2.414,0,4.434-1.721,4.899-4H56v9H2v-9h14h3c0.553,0,1-0.447,1-1s-0.447-1-1-1h-1.816   c0.414-1.162,1.514-2,2.816-2c1.654,0,3,1.346,3,3s-1.346,3-3,3c-0.553,0-1,0.447-1,1s0.447,1,1,1c2.757,0,5-2.243,5-5   s-2.243-5-5-5c-2.414,0-4.434,1.721-4.899,4H0v13v40h58v-40v-13H42.899z M56,55.5H2v-38h54V55.5z"
   id="path3806"
   style="fill:#134568;fill-opacity:1" />
	<path
   d="M26,2.5c1.654,0,3,1.346,3,3s-1.346,3-3,3c-0.553,0-1,0.447-1,1s0.447,1,1,1c2.757,0,5-2.243,5-5s-2.243-5-5-5   c-0.553,0-1,0.447-1,1S25.447,2.5,26,2.5z"
   id="path3808"
   style="fill:#134568;fill-opacity:1" />
	<path
   d="M32,2.5c1.654,0,3,1.346,3,3s-1.346,3-3,3c-0.553,0-1,0.447-1,1s0.447,1,1,1c2.757,0,5-2.243,5-5s-2.243-5-5-5   c-0.553,0-1,0.447-1,1S31.447,2.5,32,2.5z"
   id="path3810"
   style="fill:#134568;fill-opacity:1" />
	<circle
   cx="22"
   cy="24.5"
   r="1"
   id="circle3812"
   style="fill:#134568;fill-opacity:1" />
	<circle
   cx="29"
   cy="24.5"
   r="1"
   id="circle3814"
   style="fill:#134568;fill-opacity:1" />
	<circle
   cx="36"
   cy="24.5"
   r="1"
   id="circle3816"
   style="fill:#134568;fill-opacity:1" />
	<circle
   cx="43"
   cy="24.5"
   r="1"
   id="circle3818"
   style="fill:#134568;fill-opacity:1" />
	<circle
   cx="50"
   cy="24.5"
   r="1"
   id="circle3820"
   style="fill:#134568;fill-opacity:1" />
	<circle
   cx="8"
   cy="32.5"
   r="1"
   id="circle3822"
   style="fill:#134568;fill-opacity:1" />
	<circle
   cx="15"
   cy="32.5"
   r="1"
   id="circle3824"
   style="fill:#134568;fill-opacity:1" />
	<circle
   cx="22"
   cy="32.5"
   r="1"
   id="circle3826"
   style="fill:#134568;fill-opacity:1" />
	<circle
   cx="29"
   cy="32.5"
   r="1"
   id="circle3828"
   style="fill:#134568;fill-opacity:1" />
	<circle
   cx="36"
   cy="32.5"
   r="1"
   id="circle3830"
   style="fill:#134568;fill-opacity:1" />
	<circle
   cx="43"
   cy="32.5"
   r="1"
   id="circle3832"
   style="fill:#134568;fill-opacity:1" />
	<circle
   cx="50"
   cy="32.5"
   r="1"
   id="circle3834"
   style="fill:#134568;fill-opacity:1" />
	<circle
   cx="8"
   cy="39.5"
   r="1"
   id="circle3836"
   style="fill:#134568;fill-opacity:1" />
	<circle
   cx="15"
   cy="39.5"
   r="1"
   id="circle3838"
   style="fill:#134568;fill-opacity:1" />
	<circle
   cx="22"
   cy="39.5"
   r="1"
   id="circle3840"
   style="fill:#134568;fill-opacity:1" />
	<circle
   cx="29"
   cy="39.5"
   r="1"
   id="circle3842"
   style="fill:#134568;fill-opacity:1" />
	<circle
   cx="36"
   cy="39.5"
   r="1"
   id="circle3844"
   style="fill:#134568;fill-opacity:1" />
	<circle
   cx="43"
   cy="39.5"
   r="1"
   id="circle3846"
   style="fill:#134568;fill-opacity:1" />
	<circle
   cx="50"
   cy="39.5"
   r="1"
   id="circle3848"
   style="fill:#134568;fill-opacity:1" />
	<circle
   cx="8"
   cy="47.5"
   r="1"
   id="circle3850"
   style="fill:#134568;fill-opacity:1" />
	<circle
   cx="15"
   cy="47.5"
   r="1"
   id="circle3852"
   style="fill:#134568;fill-opacity:1" />
	<circle
   cx="22"
   cy="47.5"
   r="1"
   id="circle3854"
   style="fill:#134568;fill-opacity:1" />
	<circle
   cx="29"
   cy="47.5"
   r="1"
   id="circle3856"
   style="fill:#134568;fill-opacity:1" />
	<circle
   cx="36"
   cy="47.5"
   r="1"
   id="circle3858"
   style="fill:#134568;fill-opacity:1" />
</g>
<g
   id="g3862">
</g>
<g
   id="g3864">
</g>
<g
   id="g3866">
</g>
<g
   id="g3868">
</g>
<g
   id="g3870">
</g>
<g
   id="g3872">
</g>
<g
   id="g3874">
</g>
<g
   id="g3876">
</g>
<g
   id="g3878">
</g>
<g
   id="g3880">
</g>
<g
   id="g3882">
</g>
<g
   id="g3884">
</g>
<g
   id="g3886">
</g>
<g
   id="g3888">
</g>
<g
   id="g3890">
</g>
</svg>