<?xml version="1.0" encoding="UTF-8" standalone="no"?>
<!-- Generator: Adobe Illustrator 21.0.0, SVG Export Plug-In . SVG Version: 6.00 Build 0)  -->

<svg
   xmlns:dc="http://purl.org/dc/elements/1.1/"
   xmlns:cc="http://creativecommons.org/ns#"
   xmlns:rdf="http://www.w3.org/1999/02/22-rdf-syntax-ns#"
   xmlns:svg="http://www.w3.org/2000/svg"
   xmlns="http://www.w3.org/2000/svg"
   xmlns:sodipodi="http://sodipodi.sourceforge.net/DTD/sodipodi-0.dtd"
   xmlns:inkscape="http://www.inkscape.org/namespaces/inkscape"
   version="1.1"
   id="Layer_1"
   x="0px"
   y="0px"
   viewBox="0 0 496 496"
   style="enable-background:new 0 0 496 496;"
   xml:space="preserve"
   sodipodi:docname="renew.svg"
   inkscape:version="0.92.3 (2405546, 2018-03-11)"><metadata
   id="metadata5499"><rdf:RDF><cc:Work
       rdf:about=""><dc:format>image/svg+xml</dc:format><dc:type
         rdf:resource="http://purl.org/dc/dcmitype/StillImage" /></cc:Work></rdf:RDF></metadata><defs
   id="defs5497" /><sodipodi:namedview
   pagecolor="#ffffff"
   bordercolor="#666666"
   borderopacity="1"
   objecttolerance="10"
   gridtolerance="10"
   guidetolerance="10"
   inkscape:pageopacity="0"
   inkscape:pageshadow="2"
   inkscape:window-width="1920"
   inkscape:window-height="1013"
   id="namedview5495"
   showgrid="false"
   inkscape:zoom="0.47580645"
   inkscape:cx="-97.728814"
   inkscape:cy="248"
   inkscape:window-x="2391"
   inkscape:window-y="147"
   inkscape:window-maximized="1"
   inkscape:current-layer="Layer_1" />
<path
   d="M432,248.8h-16c0,92.6-75.4,168-168,168s-168-75.4-168-168c0-85.6,64.4-156.3,147.3-166.6l-16.9,16.9l11.3,11.3l37.7-37.7  L221.7,35l-11.3,11.3l19.3,19.3C136.8,75,64,153.6,64,248.8c0,101.5,82.5,184,184,184S432,350.3,432,248.8z"
   id="path5464"
   style="fill:#134568;fill-opacity:1" />
<path
   d="M191.8,7.1L207.4,4l3.1,15.7l-15.7,3.1L191.8,7.1z"
   id="path5466"
   style="fill:#134568;fill-opacity:1" />
<path
   d="M145.7,22.7l14.8-6.1l6.1,14.8l-14.8,6.1L145.7,22.7z"
   id="path5468"
   style="fill:#134568;fill-opacity:1" />
<path
   d="M103.6,47l13.3-8.9l8.9,13.3l-13.3,8.9L103.6,47z"
   id="path5470"
   style="fill:#134568;fill-opacity:1" />
<path
   d="M67,79.1l11.3-11.3l11.3,11.3L78.3,90.4L67,79.1z"
   id="path5472"
   style="fill:#134568;fill-opacity:1" />
<path
   d="M68.4,101.9L56.1,91.7C19.9,135.9,0,191.7,0,248.8c0,61.1,22.4,119.8,63.2,165.3l11.9-10.7C37,360.9,16,306,16,248.8  C16,195.3,34.6,143.2,68.4,101.9z"
   id="path5474"
   style="fill:#134568;fill-opacity:1" />
<path
   d="M285.4,477.9l15.7-3.1l3.1,15.7l-15.7,3.1L285.4,477.9z"
   id="path5476"
   style="fill:#134568;fill-opacity:1" />
<path
   d="M329.4,466.2l14.8-6.1l6.1,14.8l-14.8,6.1L329.4,466.2z"
   id="path5478"
   style="fill:#134568;fill-opacity:1" />
<path
   d="M370.2,446.1l13.3-8.9l8.9,13.3l-13.3,8.9L370.2,446.1z"
   id="path5480"
   style="fill:#134568;fill-opacity:1" />
<path
   d="M406.4,418.5l11.3-11.3l11.3,11.3l-11.3,11.3L406.4,418.5z"
   id="path5482"
   style="fill:#134568;fill-opacity:1" />
<path
   d="M432.8,83.5l-11.9,10.7C459,136.7,480,191.6,480,248.8c0,53.5-18.6,105.6-52.4,146.9l12.4,10.1c36.1-44.1,56-99.8,56-157  C496,187.7,473.6,129,432.8,83.5z"
   id="path5484"
   style="fill:#134568;fill-opacity:1" />
<g
   id="g5492"
   style="fill:#134568;fill-opacity:1">
	<path
   d="M254.1,305V191.5c0-2.1-1.7-3.8-3.8-3.8s-3.8,1.7-3.8,3.8V305c0,2.1,1.7,3.8,3.8,3.8S254.1,307.1,254.1,305z"
   id="path5486"
   style="fill:#134568;fill-opacity:1" />
	<path
   d="M364.3,163c-8,0-18-3.5-28.6-7.1c-13.4-4.6-28.6-9.9-44.4-9.9c-18.3,0-29.4,8-35.5,14.7c-2.3,2.5-4.1,5-5.4,7.3   c-1.3-2.2-3.1-4.7-5.4-7.3c-6.1-6.7-17.3-14.7-35.5-14.7c-15.8,0-31,5.3-44.4,9.9c-10.6,3.7-20.6,7.1-28.7,7.1   c-2.1,0-3.8,1.7-3.8,3.8v153.1c0,2.1,1.7,3.8,3.8,3.8c9.3,0,19.9-3.7,31.1-7.6c12.9-4.5,27.4-9.5,41.9-9.5   c12.4,0,22.5,4.1,29.9,12.2c1.4,1.5,3.8,1.7,5.4,0.2c1.6-1.4,1.7-3.8,0.2-5.4c-6.1-6.7-17.3-14.7-35.5-14.7   c-15.8,0-31,5.3-44.4,9.9c-9,3.1-17.6,6.1-24.8,6.9V170.4c8.4-0.8,17.6-4,27.3-7.4c12.9-4.5,27.4-9.5,41.9-9.5   c29.3,0,37,23.3,37.3,24.3c0.5,1.6,2,2.7,3.6,2.7c1.7,0,3.1-1.1,3.6-2.7c0.1-0.2,7.8-24.3,37.3-24.3c14.5,0,29.1,5,41.9,9.5   c9.7,3.4,19,6.6,27.3,7.4v145.5c-7.3-0.8-15.9-3.8-24.8-6.9c-13.4-4.6-28.6-9.9-44.4-9.9c-18.3,0-29.4,8-35.5,14.7   c-1.4,1.6-1.3,4,0.2,5.4c1.6,1.4,4,1.3,5.4-0.2c7.4-8.1,17.5-12.2,29.9-12.2c14.5,0,29.1,5,41.9,9.5c11.2,3.9,21.8,7.6,31.1,7.6   c2.1,0,3.8-1.7,3.8-3.8V166.8C368.1,164.7,366.4,163,364.3,163z"
   id="path5488"
   style="fill:#134568;fill-opacity:1" />
	<path
   d="M364.3,331.3c-8,0-18-3.5-28.6-7.1c-13.4-4.6-28.6-9.9-44.4-9.9c-17.2,0-28,7.1-34.4,13.5h-13.2   c-6.3-6.4-17.2-13.5-34.4-13.5c-15.8,0-31,5.3-44.4,9.9c-10.6,3.7-20.6,7.1-28.6,7.1c-2.1,0-3.8,1.7-3.8,3.8s1.7,3.8,3.8,3.8   c9.3,0,19.9-3.7,31.1-7.6c12.9-4.5,27.4-9.5,41.9-9.5c12.4,0,22.5,4.1,29.9,12.2c0.7,0.8,1.7,1.2,2.8,1.2h16.4   c1.1,0,2.1-0.4,2.8-1.2c7.4-8.1,17.5-12.2,29.9-12.2c14.5,0,29.1,5,41.9,9.5c11.2,3.9,21.8,7.6,31.1,7.6c2.1,0,3.8-1.7,3.8-3.8   C368.1,333,366.4,331.3,364.3,331.3z"
   id="path5490"
   style="fill:#134568;fill-opacity:1" />
</g>
</svg>